<?xml version="1.0" encoding="UTF-8" standalone="no"?><!DOCTYPE svg PUBLIC "-//W3C//DTD SVG 1.1//EN" "http://www.w3.org/Graphics/SVG/1.1/DTD/svg11.dtd"><svg width="100%" height="100%" viewBox="0 0 259 167" version="1.1" xmlns="http://www.w3.org/2000/svg" xmlns:xlink="http://www.w3.org/1999/xlink" xml:space="preserve" xmlns:serif="http://www.serif.com/" style="fill-rule:evenodd;clip-rule:evenodd;stroke-linejoin:round;stroke-miterlimit:2;"><path d="M29.273,49.513c-0,-2.282 2.282,-3.423 5.325,-3.423c4.565,-0 10.651,1.521 15.216,4.184l-0,-14.455c-4.945,-1.902 -10.271,-3.043 -15.216,-3.043c-12.173,0 -20.541,6.467 -20.541,17.498c-0,16.737 22.823,13.694 22.823,21.302c0,2.663 -2.282,3.804 -5.706,3.804c-4.945,-0 -11.411,-2.282 -16.356,-4.945l-0,14.455c5.706,2.282 11.031,3.423 16.356,3.423c12.553,0 20.922,-6.086 20.922,-17.117c0.38,-18.259 -22.823,-14.836 -22.823,-21.683Zm94.717,37.659l15.216,0l-0,-53.255l-15.216,0l0,53.255Zm-51.733,-65.808l-14.835,3.043l-0,47.93c-0,9.129 6.847,15.596 15.596,15.596c4.945,-0 8.749,-0.761 10.651,-1.902l-0,-12.173c-1.902,0.761 -11.412,3.424 -11.412,-5.325l-0,-21.682l11.412,-0l-0,-12.934l-11.412,0l-0,-12.553Zm31.953,17.118l-0.381,-4.565l-13.694,0l0,53.255l15.216,0l-0,-36.137c3.804,-4.565 10.27,-3.804 12.172,-3.043l0,-14.075c-1.902,-0.761 -9.509,-1.902 -13.313,4.565Zm19.78,-8.749l15.216,-3.043l-0,-12.553l-15.216,3.043l0,12.553Zm118.682,30.812c0,-15.596 -7.608,-27.769 -22.062,-27.769c-14.455,0 -23.204,12.173 -23.204,27.769c-0,18.258 10.27,27.388 25.106,27.388c7.227,-0 12.552,-1.522 16.737,-4.184l-0,-11.793c-4.185,2.283 -8.749,3.424 -14.836,3.424c-6.086,-0 -11.031,-2.282 -11.792,-9.51l29.671,0c0.38,-0.761 0.38,-3.804 0.38,-5.325Zm-30.051,-5.706c0,-6.847 4.185,-9.51 7.989,-9.51c3.803,-0 7.607,2.663 7.607,9.51l-15.596,-0Zm-39.941,-22.063c-6.086,0 -9.51,2.663 -11.792,4.945l-0.38,-3.804l-13.694,0l-0,70.373l15.215,-2.663l0,-17.118c2.283,1.522 5.326,3.804 10.651,3.804c11.032,0 20.922,-8.749 20.922,-28.149c-0.381,-17.498 -10.271,-27.388 -20.922,-27.388Zm-3.804,41.843c-3.423,0 -5.706,-1.141 -7.227,-3.043l-0,-22.443c1.521,-1.902 3.804,-3.043 7.227,-3.043c5.706,-0 9.51,6.086 9.51,14.074c0,8.369 -3.804,14.455 -9.51,14.455Z" style="fill:#32325d;fill-rule:nonzero;"/><text x="14.057px" y="131.665px" style="font-family:'Colfax-Medium', 'Colfax', sans-serif;font-weight:500;font-size:37.5px;fill:#3a3a74;">Sour<tspan x="96.857px 118.269px " y="131.665px 131.665px ">ce</tspan>s API</text></svg>